<?xml version="1.0" standalone="no"?>
 <!DOCTYPE svg PUBLIC "-//W3C//DTD SVG 1.1//EN" 
 "http://www.w3.org/Graphics/SVG/1.1/DTD/svg11.dtd"> 
<svg
  xmlns:svg="http://www.w3.org/2000/svg"
  xmlns="http://www.w3.org/2000/svg"
  xmlns:xlink="http://www.w3.org/1999/xlink"
  version="1.1"
  width="29.700220cm" height="21.000720cm" viewBox="0 0 116930 82680">
<title>SVG Picture created as Lily58_Pro_TOP-Edge_Cuts.svg date 2021/12/30 12:46:19 </title>
  <desc>Picture generated by PCBNEW </desc>
<g style="fill:#C2C200; fill-opacity:0.0; 
stroke:#C2C200; stroke-width:59.0551; stroke-opacity:1; 
stroke-linecap:round; stroke-linejoin:round;">
</g>
<g style="fill:#C2C200; fill-opacity:0.0; 
stroke:#C2C200; stroke-width:78.7402; stroke-opacity:1; 
stroke-linecap:round; stroke-linejoin:round;">
<path d="M82164 23208
L82164 17696
" />
<path d="M82164 17696
L87676 17696
" />
<path d="M87676 23208
L82164 23208
" />
<path d="M87676 17696
L87676 23208
" />
<path d="M71576 13911
L70467 13883
" />
<path d="M72664 13945
L71576 13911
" />
<path d="M73729 13984
L72664 13945
" />
<path d="M88762 16332
L88762 46196
" />
<path d="M67026 13836
L65845 13832
" />
<path d="M87676 30648
L82164 30648
" />
<path d="M88291 46774
L88172 46786
" />
<path d="M88402 46740
L88291 46774
" />
<path d="M77733 14194
L76774 14134
" />
<path d="M78663 14259
L77733 14194
" />
<path d="M79562 14329
L78663 14259
" />
<path d="M80427 14403
L79562 14329
" />
<path d="M81258 14481
L80427 14403
" />
<path d="M82054 14564
L81258 14481
" />
<path d="M82813 14651
L82054 14564
" />
<path d="M83533 14742
L82813 14651
" />
<path d="M84213 14836
L83533 14742
" />
<path d="M84851 14934
L84213 14836
" />
<path d="M85447 15036
L84851 14934
" />
<path d="M85999 15140
L85447 15036
" />
<path d="M86504 15248
L85999 15140
" />
<path d="M86963 15359
L86504 15248
" />
<path d="M87373 15472
L86963 15359
" />
<path d="M87733 15589
L87373 15472
" />
<path d="M88042 15707
L87733 15589
" />
<path d="M88297 15828
L88042 15707
" />
<path d="M88499 15951
L88297 15828
" />
<path d="M88644 16077
L88499 15951
" />
<path d="M88733 16204
L88644 16077
" />
<path d="M88762 16332
L88733 16204
" />
<path d="M82164 30648
L82164 25137
" />
<path d="M63425 48965
L63425 45196
" />
<path d="M68937 50708
L63425 50708
" />
<path d="M68190 13845
L67026 13836
" />
<path d="M69338 13861
L68190 13845
" />
<path d="M70467 13883
L69338 13861
" />
<path d="M46402 52582
L69613 52582
" />
<path d="M70203 48164
L70203 52001
" />
<path d="M69732 52570
L69613 52582
" />
<path d="M69843 52536
L69732 52570
" />
<path d="M69943 52482
L69843 52536
" />
<path d="M36091 47693
L36753 48820
" />
<path d="M35429 46567
L36091 47693
" />
<path d="M40063 54453
L40726 55580
" />
<path d="M39401 53326
L40063 54453
" />
<path d="M38739 52200
L39401 53326
" />
<path d="M38077 51073
L38739 52200
" />
<path d="M37415 49947
L38077 51073
" />
<path d="M36753 48820
L37415 49947
" />
<path d="M52165 30216
L57677 30216
" />
<path d="M52165 35728
L52165 30216
" />
<path d="M57677 35728
L52165 35728
" />
</g>
<g style="fill:#C2C200; fill-opacity:1.0; 
stroke:#C2C200; stroke-width:0; stroke-opacity:1; 
stroke-linecap:round; stroke-linejoin:round;">
<circle cx="57677.3" cy="43247.7" r="39.3701" /> 
</g>
<g style="fill:#C2C200; fill-opacity:1.0; 
stroke:#C2C200; stroke-width:78.7402; stroke-opacity:1; 
stroke-linecap:round; stroke-linejoin:round;">
</g>
<g style="fill:#C2C200; fill-opacity:0.0; 
stroke:#C2C200; stroke-width:78.7402; stroke-opacity:1; 
stroke-linecap:round; stroke-linejoin:round;">
<path d="M57677 37735
L57677 43247
" />
<path d="M52165 37735
L57677 37735
" />
<path d="M52165 43247
L52165 37735
" />
<path d="M57677 43247
L52165 43247
" />
</g>
<g style="fill:#C2C200; fill-opacity:1.0; 
stroke:#C2C200; stroke-width:0; stroke-opacity:1; 
stroke-linecap:round; stroke-linejoin:round;">
<circle cx="53936.5" cy="51594.3" r="39.3701" /> 
</g>
<g style="fill:#C2C200; fill-opacity:1.0; 
stroke:#C2C200; stroke-width:78.7402; stroke-opacity:1; 
stroke-linecap:round; stroke-linejoin:round;">
</g>
<g style="fill:#C2C200; fill-opacity:0.0; 
stroke:#C2C200; stroke-width:78.7402; stroke-opacity:1; 
stroke-linecap:round; stroke-linejoin:round;">
<path d="M53936 46082
L53936 51594
" />
<path d="M48424 46082
L53936 46082
" />
<path d="M48424 51594
L48424 46082
" />
<path d="M53936 51594
L48424 51594
" />
</g>
<g style="fill:#C2C200; fill-opacity:1.0; 
stroke:#C2C200; stroke-width:0; stroke-opacity:1; 
stroke-linecap:round; stroke-linejoin:round;">
<circle cx="61417" cy="50708.3" r="39.3701" /> 
</g>
<g style="fill:#C2C200; fill-opacity:1.0; 
stroke:#C2C200; stroke-width:78.7402; stroke-opacity:1; 
stroke-linecap:round; stroke-linejoin:round;">
</g>
<g style="fill:#C2C200; fill-opacity:0.0; 
stroke:#C2C200; stroke-width:78.7402; stroke-opacity:1; 
stroke-linecap:round; stroke-linejoin:round;">
<path d="M61417 45196
L61417 50708
" />
<path d="M55905 45196
L61417 45196
" />
<path d="M55905 50708
L55905 45196
" />
<path d="M61417 50708
L55905 50708
" />
</g>
<g style="fill:#C2C200; fill-opacity:1.0; 
stroke:#C2C200; stroke-width:0; stroke-opacity:1; 
stroke-linecap:round; stroke-linejoin:round;">
<circle cx="65196.5" cy="42696.3" r="39.3701" /> 
</g>
<g style="fill:#C2C200; fill-opacity:1.0; 
stroke:#C2C200; stroke-width:78.7402; stroke-opacity:1; 
stroke-linecap:round; stroke-linejoin:round;">
</g>
<g style="fill:#C2C200; fill-opacity:0.0; 
stroke:#C2C200; stroke-width:78.7402; stroke-opacity:1; 
stroke-linecap:round; stroke-linejoin:round;">
<path d="M65196 37184
L65196 42696
" />
<path d="M59684 37184
L65196 37184
" />
<path d="M59684 42696
L59684 37184
" />
<path d="M65196 42696
L59684 42696
" />
</g>
<g style="fill:#C2C200; fill-opacity:1.0; 
stroke:#C2C200; stroke-width:0; stroke-opacity:1; 
stroke-linecap:round; stroke-linejoin:round;">
<circle cx="65196.9" cy="35215.9" r="39.3701" /> 
</g>
<g style="fill:#C2C200; fill-opacity:1.0; 
stroke:#C2C200; stroke-width:78.7402; stroke-opacity:1; 
stroke-linecap:round; stroke-linejoin:round;">
</g>
<g style="fill:#C2C200; fill-opacity:0.0; 
stroke:#C2C200; stroke-width:78.7402; stroke-opacity:1; 
stroke-linecap:round; stroke-linejoin:round;">
<path d="M65196 29704
L65196 35215
" />
<path d="M59685 29704
L65196 29704
" />
<path d="M59685 35215
L59685 29704
" />
<path d="M65196 35215
L59685 35215
" />
</g>
<g style="fill:#C2C200; fill-opacity:1.0; 
stroke:#C2C200; stroke-width:0; stroke-opacity:1; 
stroke-linecap:round; stroke-linejoin:round;">
<circle cx="65196.9" cy="27696.9" r="39.3701" /> 
</g>
<g style="fill:#C2C200; fill-opacity:1.0; 
stroke:#C2C200; stroke-width:78.7402; stroke-opacity:1; 
stroke-linecap:round; stroke-linejoin:round;">
</g>
<g style="fill:#C2C200; fill-opacity:0.0; 
stroke:#C2C200; stroke-width:78.7402; stroke-opacity:1; 
stroke-linecap:round; stroke-linejoin:round;">
<path d="M65196 22185
L65196 27696
" />
<path d="M59685 22185
L65196 22185
" />
<path d="M59685 27696
L59685 22185
" />
<path d="M65196 27696
L59685 27696
" />
</g>
<g style="fill:#C2C200; fill-opacity:1.0; 
stroke:#C2C200; stroke-width:0; stroke-opacity:1; 
stroke-linecap:round; stroke-linejoin:round;">
<circle cx="65169" cy="20180.9" r="39.3701" /> 
</g>
<g style="fill:#C2C200; fill-opacity:1.0; 
stroke:#C2C200; stroke-width:78.7402; stroke-opacity:1; 
stroke-linecap:round; stroke-linejoin:round;">
</g>
<g style="fill:#C2C200; fill-opacity:0.0; 
stroke:#C2C200; stroke-width:78.7402; stroke-opacity:1; 
stroke-linecap:round; stroke-linejoin:round;">
<path d="M65169 14669
L65169 20180
" />
<path d="M59657 14669
L65169 14669
" />
<path d="M59657 20180
L59657 14669
" />
<path d="M65169 20180
L59657 20180
" />
</g>
<g style="fill:#C2C200; fill-opacity:1.0; 
stroke:#C2C200; stroke-width:0; stroke-opacity:1; 
stroke-linecap:round; stroke-linejoin:round;">
<circle cx="72678.8" cy="20727.9" r="39.3701" /> 
</g>
<g style="fill:#C2C200; fill-opacity:1.0; 
stroke:#C2C200; stroke-width:78.7402; stroke-opacity:1; 
stroke-linecap:round; stroke-linejoin:round;">
</g>
<g style="fill:#C2C200; fill-opacity:0.0; 
stroke:#C2C200; stroke-width:78.7402; stroke-opacity:1; 
stroke-linecap:round; stroke-linejoin:round;">
<path d="M72678 15216
L72678 20727
" />
<path d="M67166 15216
L72678 15216
" />
<path d="M67166 20727
L67166 15216
" />
<path d="M72678 20727
L67166 20727
" />
</g>
<g style="fill:#C2C200; fill-opacity:1.0; 
stroke:#C2C200; stroke-width:0; stroke-opacity:1; 
stroke-linecap:round; stroke-linejoin:round;">
<circle cx="72676.4" cy="28208.3" r="39.3701" /> 
</g>
<g style="fill:#C2C200; fill-opacity:1.0; 
stroke:#C2C200; stroke-width:78.7402; stroke-opacity:1; 
stroke-linecap:round; stroke-linejoin:round;">
</g>
<g style="fill:#C2C200; fill-opacity:0.0; 
stroke:#C2C200; stroke-width:78.7402; stroke-opacity:1; 
stroke-linecap:round; stroke-linejoin:round;">
<path d="M72676 22696
L72676 28208
" />
<path d="M67164 22696
L72676 22696
" />
<path d="M67164 28208
L67164 22696
" />
<path d="M72676 28208
L67164 28208
" />
</g>
<g style="fill:#C2C200; fill-opacity:1.0; 
stroke:#C2C200; stroke-width:0; stroke-opacity:1; 
stroke-linecap:round; stroke-linejoin:round;">
<circle cx="72677.2" cy="35727.7" r="39.3701" /> 
</g>
<g style="fill:#C2C200; fill-opacity:1.0; 
stroke:#C2C200; stroke-width:78.7402; stroke-opacity:1; 
stroke-linecap:round; stroke-linejoin:round;">
</g>
<g style="fill:#C2C200; fill-opacity:0.0; 
stroke:#C2C200; stroke-width:78.7402; stroke-opacity:1; 
stroke-linecap:round; stroke-linejoin:round;">
<path d="M72677 30215
L72677 35727
" />
<path d="M67165 30215
L72677 30215
" />
<path d="M67165 35727
L67165 30215
" />
<path d="M72677 35727
L67165 35727
" />
</g>
<g style="fill:#C2C200; fill-opacity:1.0; 
stroke:#C2C200; stroke-width:0; stroke-opacity:1; 
stroke-linecap:round; stroke-linejoin:round;">
<circle cx="72676.9" cy="43247.8" r="39.3701" /> 
</g>
<g style="fill:#C2C200; fill-opacity:1.0; 
stroke:#C2C200; stroke-width:78.7402; stroke-opacity:1; 
stroke-linecap:round; stroke-linejoin:round;">
</g>
<g style="fill:#C2C200; fill-opacity:0.0; 
stroke:#C2C200; stroke-width:78.7402; stroke-opacity:1; 
stroke-linecap:round; stroke-linejoin:round;">
<path d="M72676 37735
L72676 43247
" />
<path d="M67165 37735
L72676 37735
" />
<path d="M67165 43247
L67165 37735
" />
<path d="M72676 43247
L67165 43247
" />
</g>
<g style="fill:#C2C200; fill-opacity:1.0; 
stroke:#C2C200; stroke-width:0; stroke-opacity:1; 
stroke-linecap:round; stroke-linejoin:round;">
<circle cx="80196.4" cy="30058.9" r="39.3701" /> 
</g>
<g style="fill:#C2C200; fill-opacity:1.0; 
stroke:#C2C200; stroke-width:78.7402; stroke-opacity:1; 
stroke-linecap:round; stroke-linejoin:round;">
</g>
<g style="fill:#C2C200; fill-opacity:0.0; 
stroke:#C2C200; stroke-width:78.7402; stroke-opacity:1; 
stroke-linecap:round; stroke-linejoin:round;">
<path d="M80196 24547
L80196 30058
" />
<path d="M74684 24547
L80196 24547
" />
<path d="M74684 30058
L74684 24547
" />
<path d="M80196 30058
L74684 30058
" />
</g>
<g style="fill:#C2C200; fill-opacity:1.0; 
stroke:#C2C200; stroke-width:0; stroke-opacity:1; 
stroke-linecap:round; stroke-linejoin:round;">
<circle cx="80191" cy="37617.9" r="39.3701" /> 
</g>
<g style="fill:#C2C200; fill-opacity:1.0; 
stroke:#C2C200; stroke-width:78.7402; stroke-opacity:1; 
stroke-linecap:round; stroke-linejoin:round;">
</g>
<g style="fill:#C2C200; fill-opacity:0.0; 
stroke:#C2C200; stroke-width:78.7402; stroke-opacity:1; 
stroke-linecap:round; stroke-linejoin:round;">
<path d="M80190 32106
L80190 37617
" />
<path d="M74679 32106
L80190 32106
" />
<path d="M74679 37617
L74679 32106
" />
<path d="M80190 37617
L74679 37617
" />
</g>
<g style="fill:#C2C200; fill-opacity:1.0; 
stroke:#C2C200; stroke-width:0; stroke-opacity:1; 
stroke-linecap:round; stroke-linejoin:round;">
<circle cx="80196.8" cy="45097.8" r="39.3701" /> 
</g>
<g style="fill:#C2C200; fill-opacity:1.0; 
stroke:#C2C200; stroke-width:78.7402; stroke-opacity:1; 
stroke-linecap:round; stroke-linejoin:round;">
</g>
<g style="fill:#C2C200; fill-opacity:0.0; 
stroke:#C2C200; stroke-width:78.7402; stroke-opacity:1; 
stroke-linecap:round; stroke-linejoin:round;">
<path d="M80196 39585
L80196 45097
" />
<path d="M74684 39585
L80196 39585
" />
<path d="M74684 45097
L74684 39585
" />
<path d="M80196 45097
L74684 45097
" />
</g>
<g style="fill:#C2C200; fill-opacity:1.0; 
stroke:#C2C200; stroke-width:0; stroke-opacity:1; 
stroke-linecap:round; stroke-linejoin:round;">
<circle cx="80196.9" cy="22617.9" r="39.3701" /> 
</g>
<g style="fill:#C2C200; fill-opacity:1.0; 
stroke:#C2C200; stroke-width:78.7402; stroke-opacity:1; 
stroke-linecap:round; stroke-linejoin:round;">
</g>
<g style="fill:#C2C200; fill-opacity:0.0; 
stroke:#C2C200; stroke-width:78.7402; stroke-opacity:1; 
stroke-linecap:round; stroke-linejoin:round;">
<path d="M80196 17106
L80196 22617
" />
<path d="M74684 17106
L80196 17106
" />
<path d="M74684 22617
L74684 17106
" />
<path d="M80196 22617
L74684 22617
" />
<path d="M65845 13832
L44440 13832
" />
<path d="M35370 46456
L35429 46567
" />
<path d="M35312 46345
L35370 46456
" />
<path d="M35253 46234
L35312 46345
" />
<path d="M35194 46124
L35253 46234
" />
<path d="M35104 45925
L35194 46124
" />
<path d="M35014 45727
L35104 45925
" />
<path d="M34924 45528
L35014 45727
" />
<path d="M34834 45329
L34924 45528
" />
<path d="M34725 45047
L34834 45329
" />
<path d="M34615 44765
L34725 45047
" />
<path d="M34506 44483
L34615 44765
" />
<path d="M34396 44201
L34506 44483
" />
<path d="M34278 43839
L34396 44201
" />
<path d="M34161 43477
L34278 43839
" />
<path d="M34043 43116
L34161 43477
" />
<path d="M33925 42754
L34043 43116
" />
<path d="M33810 42317
L33925 42754
" />
<path d="M33696 41880
L33810 42317
" />
<path d="M33581 41443
L33696 41880
" />
<path d="M33467 41006
L33581 41443
" />
<path d="M33367 40497
L33467 41006
" />
<path d="M33267 39989
L33367 40497
" />
<path d="M33168 39480
L33267 39989
" />
<path d="M33068 38972
L33168 39480
" />
<path d="M32994 38396
L33068 38972
" />
<path d="M32921 37821
L32994 38396
" />
<path d="M32847 37245
L32921 37821
" />
<path d="M32774 36669
L32847 37245
" />
<path d="M32743 36123
L32774 36669
" />
<path d="M32713 35578
L32743 36123
" />
<path d="M32682 35032
L32713 35578
" />
<path d="M32652 34486
L32682 35032
" />
<path d="M41052 55677
L41123 55638
" />
<path d="M41002 55693
L41052 55677
" />
<path d="M40953 55697
L41002 55693
" />
<path d="M40909 55697
L40953 55697
" />
<path d="M40866 55684
L40909 55697
" />
<path d="M40822 55663
L40866 55684
" />
<path d="M40763 55626
L40822 55663
" />
<path d="M40726 55580
L40763 55626
" />
<path d="M45741 52964
L46401 52582
" />
<path d="M45082 53346
L45741 52964
" />
<path d="M44422 53728
L45082 53346
" />
<path d="M43762 54110
L44422 53728
" />
<path d="M43103 54492
L43762 54110
" />
<path d="M42443 54874
L43103 54492
" />
<path d="M41783 55256
L42443 54874
" />
<path d="M41123 55638
L41783 55256
" />
<path d="M52165 22736
L57676 22736
" />
<path d="M52165 28247
L52165 22736
" />
<path d="M57676 28247
L52165 28247
" />
</g>
<g style="fill:#C2C200; fill-opacity:1.0; 
stroke:#C2C200; stroke-width:0; stroke-opacity:1; 
stroke-linecap:round; stroke-linejoin:round;">
<circle cx="57677.3" cy="35728.6" r="39.3701" /> 
</g>
<g style="fill:#C2C200; fill-opacity:1.0; 
stroke:#C2C200; stroke-width:78.7402; stroke-opacity:1; 
stroke-linecap:round; stroke-linejoin:round;">
</g>
<g style="fill:#C2C200; fill-opacity:0.0; 
stroke:#C2C200; stroke-width:78.7402; stroke-opacity:1; 
stroke-linecap:round; stroke-linejoin:round;">
<path d="M57677 30216
L57677 35728
" />
<path d="M57676 20727
L52165 20727
" />
</g>
<g style="fill:#C2C200; fill-opacity:1.0; 
stroke:#C2C200; stroke-width:0; stroke-opacity:1; 
stroke-linecap:round; stroke-linejoin:round;">
<circle cx="57676.9" cy="28247.9" r="39.3701" /> 
</g>
<g style="fill:#C2C200; fill-opacity:1.0; 
stroke:#C2C200; stroke-width:78.7402; stroke-opacity:1; 
stroke-linecap:round; stroke-linejoin:round;">
</g>
<g style="fill:#C2C200; fill-opacity:0.0; 
stroke:#C2C200; stroke-width:78.7402; stroke-opacity:1; 
stroke-linecap:round; stroke-linejoin:round;">
<path d="M57676 22736
L57676 28247
" />
</g>
<g style="fill:#C2C200; fill-opacity:1.0; 
stroke:#C2C200; stroke-width:0; stroke-opacity:1; 
stroke-linecap:round; stroke-linejoin:round;">
<circle cx="50196.5" cy="21672.9" r="39.3701" /> 
</g>
<g style="fill:#C2C200; fill-opacity:1.0; 
stroke:#C2C200; stroke-width:78.7402; stroke-opacity:1; 
stroke-linecap:round; stroke-linejoin:round;">
</g>
<g style="fill:#C2C200; fill-opacity:0.0; 
stroke:#C2C200; stroke-width:78.7402; stroke-opacity:1; 
stroke-linecap:round; stroke-linejoin:round;">
<path d="M50196 16161
L50196 21672
" />
<path d="M44684 16161
L50196 16161
" />
<path d="M44684 21672
L44684 16161
" />
<path d="M50196 21672
L44684 21672
" />
</g>
<g style="fill:#C2C200; fill-opacity:1.0; 
stroke:#C2C200; stroke-width:0; stroke-opacity:1; 
stroke-linecap:round; stroke-linejoin:round;">
<circle cx="57676.9" cy="20727.9" r="39.3701" /> 
</g>
<g style="fill:#C2C200; fill-opacity:1.0; 
stroke:#C2C200; stroke-width:78.7402; stroke-opacity:1; 
stroke-linecap:round; stroke-linejoin:round;">
</g>
<g style="fill:#C2C200; fill-opacity:0.0; 
stroke:#C2C200; stroke-width:78.7402; stroke-opacity:1; 
stroke-linecap:round; stroke-linejoin:round;">
<path d="M57676 15216
L57676 20727
" />
<path d="M52165 15216
L57676 15216
" />
<path d="M52165 20727
L52165 15216
" />
</g>
<g style="fill:#C2C200; fill-opacity:1.0; 
stroke:#C2C200; stroke-width:0; stroke-opacity:1; 
stroke-linecap:round; stroke-linejoin:round;">
<circle cx="50196.9" cy="29193.1" r="39.3701" /> 
</g>
<g style="fill:#C2C200; fill-opacity:1.0; 
stroke:#C2C200; stroke-width:78.7402; stroke-opacity:1; 
stroke-linecap:round; stroke-linejoin:round;">
</g>
<g style="fill:#C2C200; fill-opacity:0.0; 
stroke:#C2C200; stroke-width:78.7402; stroke-opacity:1; 
stroke-linecap:round; stroke-linejoin:round;">
<path d="M50196 23681
L50196 29193
" />
<path d="M44685 23681
L50196 23681
" />
<path d="M44685 29193
L44685 23681
" />
<path d="M50196 29193
L44685 29193
" />
<path d="M33517 33619
L42708 33619
" />
</g>
<g style="fill:#C2C200; fill-opacity:1.0; 
stroke:#C2C200; stroke-width:0; stroke-opacity:1; 
stroke-linecap:round; stroke-linejoin:round;">
<circle cx="42658.1" cy="40373.8" r="39.3701" /> 
</g>
<g style="fill:#C2C200; fill-opacity:1.0; 
stroke:#C2C200; stroke-width:78.7402; stroke-opacity:1; 
stroke-linecap:round; stroke-linejoin:round;">
</g>
<g style="fill:#C2C200; fill-opacity:0.0; 
stroke:#C2C200; stroke-width:78.7402; stroke-opacity:1; 
stroke-linecap:round; stroke-linejoin:round;">
<path d="M42658 34861
L42658 40373
" />
<path d="M37165 34861
L42658 34861
" />
<path d="M37165 40373
L37165 34861
" />
<path d="M42658 40373
L37165 40373
" />
</g>
<g style="fill:#C2C200; fill-opacity:1.0; 
stroke:#C2C200; stroke-width:0; stroke-opacity:1; 
stroke-linecap:round; stroke-linejoin:round;">
<circle cx="45103.1" cy="50240.6" r="39.3701" /> 
</g>
<g style="fill:#C2C200; fill-opacity:1.0; 
stroke:#C2C200; stroke-width:78.7402; stroke-opacity:1; 
stroke-linecap:round; stroke-linejoin:round;">
</g>
<g style="fill:#C2C200; fill-opacity:0.0; 
stroke:#C2C200; stroke-width:78.7402; stroke-opacity:1; 
stroke-linecap:round; stroke-linejoin:round;">
<path d="M42347 45467
L45103 50240
" />
<path d="M37573 48223
L42347 45467
" />
<path d="M40329 52996
L37573 48223
" />
<path d="M45103 50240
L40329 52996
" />
</g>
<g style="fill:#C2C200; fill-opacity:1.0; 
stroke:#C2C200; stroke-width:0; stroke-opacity:1; 
stroke-linecap:round; stroke-linejoin:round;">
<circle cx="50196.5" cy="44153.8" r="39.3701" /> 
</g>
<g style="fill:#C2C200; fill-opacity:1.0; 
stroke:#C2C200; stroke-width:78.7402; stroke-opacity:1; 
stroke-linecap:round; stroke-linejoin:round;">
</g>
<g style="fill:#C2C200; fill-opacity:0.0; 
stroke:#C2C200; stroke-width:78.7402; stroke-opacity:1; 
stroke-linecap:round; stroke-linejoin:round;">
<path d="M50196 38641
L50196 44153
" />
<path d="M44684 38641
L50196 38641
" />
<path d="M44684 44153
L44684 38641
" />
<path d="M50196 44153
L44684 44153
" />
</g>
<g style="fill:#C2C200; fill-opacity:1.0; 
stroke:#C2C200; stroke-width:0; stroke-opacity:1; 
stroke-linecap:round; stroke-linejoin:round;">
<circle cx="50196.5" cy="36672.3" r="39.3701" /> 
</g>
<g style="fill:#C2C200; fill-opacity:1.0; 
stroke:#C2C200; stroke-width:78.7402; stroke-opacity:1; 
stroke-linecap:round; stroke-linejoin:round;">
</g>
<g style="fill:#C2C200; fill-opacity:0.0; 
stroke:#C2C200; stroke-width:78.7402; stroke-opacity:1; 
stroke-linecap:round; stroke-linejoin:round;">
<path d="M50196 31160
L50196 36672
" />
<path d="M44684 31160
L50196 31160
" />
<path d="M44684 36672
L44684 31160
" />
<path d="M50196 36672
L44684 36672
" />
<path d="M43506 33090
L43557 32928
" />
<path d="M43427 33237
L43506 33090
" />
<path d="M43321 33365
L43427 33237
" />
<path d="M43193 33471
L43321 33365
" />
<path d="M43046 33551
L43193 33471
" />
<path d="M42883 33601
L43046 33551
" />
<path d="M42708 33619
L42883 33601
" />
<path d="M43557 32928
L43574 32753
" />
<path d="M33517 33619
L33341 33636
" />
<path d="M32798 33998
L32719 34146
" />
<path d="M32903 33871
L32798 33998
" />
<path d="M33031 33765
L32903 33871
" />
<path d="M33178 33686
L33031 33765
" />
<path d="M33341 33636
L33178 33686
" />
<path d="M32669 34309
L32652 34486
" />
<path d="M32719 34146
L32669 34309
" />
<path d="M44266 13850
L44103 13900
" />
<path d="M44440 13832
L44266 13850
" />
<path d="M43592 14524
L43574 14699
" />
<path d="M43642 14361
L43592 14524
" />
<path d="M43722 14214
L43642 14361
" />
<path d="M43828 14086
L43722 14214
" />
<path d="M43956 13980
L43828 14086
" />
<path d="M44103 13900
L43956 13980
" />
<path d="M87696 45688
L82184 45688
" />
</g>
<g style="fill:#C2C200; fill-opacity:1.0; 
stroke:#C2C200; stroke-width:0; stroke-opacity:1; 
stroke-linecap:round; stroke-linejoin:round;">
<circle cx="87696.4" cy="45688.7" r="39.3701" /> 
</g>
<g style="fill:#C2C200; fill-opacity:1.0; 
stroke:#C2C200; stroke-width:78.7402; stroke-opacity:1; 
stroke-linecap:round; stroke-linejoin:round;">
</g>
<g style="fill:#C2C200; fill-opacity:0.0; 
stroke:#C2C200; stroke-width:78.7402; stroke-opacity:1; 
stroke-linecap:round; stroke-linejoin:round;">
<path d="M87696 40176
L87696 45688
" />
<path d="M82184 40176
L87696 40176
" />
<path d="M82184 45688
L82184 40176
" />
<path d="M82165 38208
L82165 32697
" />
<path d="M87677 38208
L82165 38208
" />
<path d="M43574 32753
L43574 14704
" />
</g>
<g style="fill:#C2C200; fill-opacity:1.0; 
stroke:#C2C200; stroke-width:0; stroke-opacity:1; 
stroke-linecap:round; stroke-linejoin:round;">
<circle cx="87677.2" cy="38208.9" r="39.3701" /> 
</g>
<g style="fill:#C2C200; fill-opacity:1.0; 
stroke:#C2C200; stroke-width:78.7402; stroke-opacity:1; 
stroke-linecap:round; stroke-linejoin:round;">
</g>
<g style="fill:#C2C200; fill-opacity:0.0; 
stroke:#C2C200; stroke-width:78.7402; stroke-opacity:1; 
stroke-linecap:round; stroke-linejoin:round;">
<path d="M87677 32697
L87677 38208
" />
<path d="M82165 32697
L87677 32697
" />
<path d="M70030 52410
L69943 52482
" />
<path d="M70102 52322
L70030 52410
" />
<path d="M70157 52222
L70102 52322
" />
<path d="M70191 52111
L70157 52222
" />
<path d="M70203 51992
L70191 52111
" />
<path d="M71581 46786
L88172 46786
" />
<path d="M71303 46814
L71581 46786
" />
<path d="M71044 46895
L71303 46814
" />
<path d="M70810 47022
L71044 46895
" />
<path d="M70607 47190
L70810 47022
" />
<path d="M70438 47394
L70607 47190
" />
<path d="M70311 47628
L70438 47394
" />
<path d="M70231 47886
L70311 47628
" />
<path d="M70203 48164
L70231 47886
" />
<path d="M74770 14029
L73729 13984
" />
<path d="M75785 14079
L74770 14029
" />
<path d="M76774 14134
L75785 14079
" />
<path d="M87676 25137
L87676 30648
" />
<path d="M88502 46686
L88402 46740
" />
<path d="M88590 46613
L88502 46686
" />
<path d="M88662 46526
L88590 46613
" />
<path d="M88716 46426
L88662 46526
" />
<path d="M88750 46315
L88716 46426
" />
<path d="M88762 46196
L88750 46315
" />
<path d="M63425 45196
L68937 45196
" />
<path d="M63425 50708
L63425 48965
" />
<path d="M82164 25137
L87676 25137
" />
<path d="M68937 45196
L68937 50708
" />
<g >
</g>
<g >
</g>
<g >
</g>
<g >
</g>
<g >
</g>
<g >
</g>
</g> 
</svg>
