<?xml version="1.0" encoding="UTF-8" standalone="no"?>
<svg
   version="1.1"
   width="29.700220cm"
   height="21.000720cm"
   viewBox="0 0 116930 82680"
   id="svg1502"
   sodipodi:docname="lily58_TOP-B_Cu.svg"
   inkscape:version="1.1.1 (3bf5ae0d25, 2021-09-20)"
   xmlns:inkscape="http://www.inkscape.org/namespaces/inkscape"
   xmlns:sodipodi="http://sodipodi.sourceforge.net/DTD/sodipodi-0.dtd"
   xmlns="http://www.w3.org/2000/svg"
   xmlns:svg="http://www.w3.org/2000/svg"
   xmlns:rdf="http://www.w3.org/1999/02/22-rdf-syntax-ns#"
   xmlns:cc="http://creativecommons.org/ns#"
   xmlns:dc="http://purl.org/dc/elements/1.1/">
  <defs
     id="defs1506" />
  <sodipodi:namedview
     id="namedview1504"
     pagecolor="#505050"
     bordercolor="#eeeeee"
     borderopacity="1"
     inkscape:pageshadow="0"
     inkscape:pageopacity="0"
     inkscape:pagecheckerboard="0"
     inkscape:document-units="cm"
     showgrid="false"
     inkscape:zoom="1.8117038"
     inkscape:cx="515.81278"
     inkscape:cy="250.04087"
     inkscape:window-width="2128"
     inkscape:window-height="936"
     inkscape:window-x="0"
     inkscape:window-y="0"
     inkscape:window-maximized="1"
     inkscape:current-layer="svg1502" />
  <title
     id="title2">SVG Picture created as Lily58_Pro_TOP-B_Cu.svg date 2021/12/30 15:27:34 </title>
  <desc
     id="desc4">Picture generated by PCBNEW </desc>
  <g
     style="fill:#FFFFFF; fill-opacity:1.0;  stroke:#FFFFFF; stroke-width:0; stroke-opacity:1;  stroke-linecap:round; stroke-linejoin:round;"
     id="g732">
    <circle
       cx="51023.6"
       cy="22716.5"
       r="472.441"
       id="circle730" />
  </g>
  <g
     style="fill:#FFFFFF; fill-opacity:1.0;  stroke:#FFFFFF; stroke-width:0; stroke-opacity:1;  stroke-linecap:round; stroke-linejoin:round;"
     id="g738">
    <circle
       cx="81023.6"
       cy="23582.7"
       r="472.441"
       id="circle736" />
  </g>
  <g
     style="fill:#FFFFFF; fill-opacity:1.0;  stroke:#FFFFFF; stroke-width:0; stroke-opacity:1;  stroke-linecap:round; stroke-linejoin:round;"
     id="g744">
    <circle
       cx="81023.6"
       cy="38622"
       r="472.441"
       id="circle742" />
  </g>
  <g
     style="fill:#FFFFFF; fill-opacity:1.0;  stroke:#FFFFFF; stroke-width:0; stroke-opacity:1;  stroke-linecap:round; stroke-linejoin:round;"
     id="g750">
    <circle
       cx="51023.6"
       cy="37677.2"
       r="472.441"
       id="circle748" />
  </g>
  <g
     style="fill:#FFFFFF; fill-opacity:1.0;  stroke:#FFFFFF; stroke-width:0; stroke-opacity:1;  stroke-linecap:round; stroke-linejoin:round;"
     id="g756">
    <circle
       cx="41338.6"
       cy="44448.8"
       r="472.441"
       id="circle754" />
  </g>
  <g
     style="fill:#C2C200; fill-opacity:0.0;  stroke:#C2C200; stroke-width:78.7402; stroke-opacity:1;  stroke-linecap:round; stroke-linejoin:round;"
     id="g768">
    <path
       d="M50196 16161 L50196 21672 "
       id="path766" />
  </g>
  <g
     style="fill:#C2C200; fill-opacity:1.0;  stroke:#C2C200; stroke-width:0; stroke-opacity:1;  stroke-linecap:round; stroke-linejoin:round;"
     id="g774">
    <circle
       cx="57676.9"
       cy="20727.9"
       r="39.3701"
       id="circle770" />
    <circle
       cx="65169"
       cy="20180.9"
       r="39.3701"
       id="circle772" />
  </g>
  <g
     style="fill:#C2C200; fill-opacity:0.0;  stroke:#C2C200; stroke-width:78.7402; stroke-opacity:1;  stroke-linecap:round; stroke-linejoin:round;"
     id="g896">
    <path
       d="M65169 20180 L59657 20180 "
       id="path778" />
    <path
       d="M57676 20727 L52165 20727 "
       id="path780" />
    <path
       d="M44684 16161 L50196 16161 "
       id="path782" />
    <path
       d="M82164 23208 L82164 17696 "
       id="path784" />
    <path
       d="M82164 17696 L87676 17696 "
       id="path786" />
    <path
       d="M87676 23208 L82164 23208 "
       id="path788" />
    <path
       d="M87676 17696 L87676 23208 "
       id="path790" />
    <path
       d="M71576 13911 L70467 13883 "
       id="path792" />
    <path
       d="M72664 13945 L71576 13911 "
       id="path794" />
    <path
       d="M73729 13984 L72664 13945 "
       id="path796" />
    <path
       d="M88762 16332 L88762 46196 "
       id="path798" />
    <path
       d="M67026 13836 L65845 13832 "
       id="path800" />
    <path
       d="M87676 30648 L82164 30648 "
       id="path802" />
    <path
       d="M88291 46774 L88172 46786 "
       id="path804" />
    <path
       d="M88402 46740 L88291 46774 "
       id="path806" />
    <path
       d="M77733 14194 L76774 14134 "
       id="path808" />
    <path
       d="M78663 14259 L77733 14194 "
       id="path810" />
    <path
       d="M79562 14329 L78663 14259 "
       id="path812" />
    <path
       d="M80427 14403 L79562 14329 "
       id="path814" />
    <path
       d="M81258 14481 L80427 14403 "
       id="path816" />
    <path
       d="M82054 14564 L81258 14481 "
       id="path818" />
    <path
       d="M82813 14651 L82054 14564 "
       id="path820" />
    <path
       d="M83533 14742 L82813 14651 "
       id="path822" />
    <path
       d="M84213 14836 L83533 14742 "
       id="path824" />
    <path
       d="M84851 14934 L84213 14836 "
       id="path826" />
    <path
       d="M85447 15036 L84851 14934 "
       id="path828" />
    <path
       d="M85999 15140 L85447 15036 "
       id="path830" />
    <path
       d="M86504 15248 L85999 15140 "
       id="path832" />
    <path
       d="M86963 15359 L86504 15248 "
       id="path834" />
    <path
       d="M87373 15472 L86963 15359 "
       id="path836" />
    <path
       d="M87733 15589 L87373 15472 "
       id="path838" />
    <path
       d="M88042 15707 L87733 15589 "
       id="path840" />
    <path
       d="M88297 15828 L88042 15707 "
       id="path842" />
    <path
       d="M88499 15951 L88297 15828 "
       id="path844" />
    <path
       d="M88644 16077 L88499 15951 "
       id="path846" />
    <path
       d="M88733 16204 L88644 16077 "
       id="path848" />
    <path
       d="M88762 16332 L88733 16204 "
       id="path850" />
    <path
       d="M82164 30648 L82164 25137 "
       id="path852" />
    <path
       d="M63425 48965 L63425 45196 "
       id="path854" />
    <path
       d="M68937 50708 L63425 50708 "
       id="path856" />
    <path
       d="M68190 13845 L67026 13836 "
       id="path858" />
    <path
       d="M69338 13861 L68190 13845 "
       id="path860" />
    <path
       d="M70467 13883 L69338 13861 "
       id="path862" />
    <path
       d="M46402 52582 L69613 52582 "
       id="path864" />
    <path
       d="M70203 48164 L70203 52001 "
       id="path866" />
    <path
       d="M69732 52570 L69613 52582 "
       id="path868" />
    <path
       d="M69843 52536 L69732 52570 "
       id="path870" />
    <path
       d="M69943 52482 L69843 52536 "
       id="path872" />
    <path
       d="M36091 47693 L36753 48820 "
       id="path874" />
    <path
       d="M35429 46567 L36091 47693 "
       id="path876" />
    <path
       d="M40063 54453 L40726 55580 "
       id="path878" />
    <path
       d="M39401 53326 L40063 54453 "
       id="path880" />
    <path
       d="M38739 52200 L39401 53326 "
       id="path882" />
    <path
       d="M38077 51073 L38739 52200 "
       id="path884" />
    <path
       d="M37415 49947 L38077 51073 "
       id="path886" />
    <path
       d="M36753 48820 L37415 49947 "
       id="path888" />
    <path
       d="M52165 30216 L57677 30216 "
       id="path890" />
    <path
       d="M52165 35728 L52165 30216 "
       id="path892" />
    <path
       d="M57677 35728 L52165 35728 "
       id="path894" />
  </g>
  <g
     style="fill:#C2C200; fill-opacity:1.0;  stroke:#C2C200; stroke-width:0; stroke-opacity:1;  stroke-linecap:round; stroke-linejoin:round;"
     id="g900">
    <circle
       cx="57677.3"
       cy="43247.7"
       r="39.3701"
       id="circle898" />
  </g>
  <g
     style="fill:#C2C200; fill-opacity:0.0;  stroke:#C2C200; stroke-width:78.7402; stroke-opacity:1;  stroke-linecap:round; stroke-linejoin:round;"
     id="g912">
    <path
       d="M57677 37735 L57677 43247 "
       id="path904" />
    <path
       d="M52165 37735 L57677 37735 "
       id="path906" />
    <path
       d="M52165 43247 L52165 37735 "
       id="path908" />
    <path
       d="M57677 43247 L52165 43247 "
       id="path910" />
  </g>
  <g
     style="fill:#C2C200; fill-opacity:1.0;  stroke:#C2C200; stroke-width:0; stroke-opacity:1;  stroke-linecap:round; stroke-linejoin:round;"
     id="g916">
    <circle
       cx="53936.5"
       cy="51594.3"
       r="39.3701"
       id="circle914" />
  </g>
  <g
     style="fill:#C2C200; fill-opacity:0.0;  stroke:#C2C200; stroke-width:78.7402; stroke-opacity:1;  stroke-linecap:round; stroke-linejoin:round;"
     id="g928">
    <path
       d="M53936 46082 L53936 51594 "
       id="path920" />
    <path
       d="M48424 46082 L53936 46082 "
       id="path922" />
    <path
       d="M48424 51594 L48424 46082 "
       id="path924" />
    <path
       d="M53936 51594 L48424 51594 "
       id="path926" />
  </g>
  <g
     style="fill:#C2C200; fill-opacity:1.0;  stroke:#C2C200; stroke-width:0; stroke-opacity:1;  stroke-linecap:round; stroke-linejoin:round;"
     id="g932">
    <circle
       cx="61417"
       cy="50708.3"
       r="39.3701"
       id="circle930" />
  </g>
  <g
     style="fill:#C2C200; fill-opacity:0.0;  stroke:#C2C200; stroke-width:78.7402; stroke-opacity:1;  stroke-linecap:round; stroke-linejoin:round;"
     id="g944">
    <path
       d="M61417 45196 L61417 50708 "
       id="path936" />
    <path
       d="M55905 45196 L61417 45196 "
       id="path938" />
    <path
       d="M55905 50708 L55905 45196 "
       id="path940" />
    <path
       d="M61417 50708 L55905 50708 "
       id="path942" />
  </g>
  <g
     style="fill:#C2C200; fill-opacity:1.0;  stroke:#C2C200; stroke-width:0; stroke-opacity:1;  stroke-linecap:round; stroke-linejoin:round;"
     id="g948">
    <circle
       cx="65196.5"
       cy="42696.3"
       r="39.3701"
       id="circle946" />
  </g>
  <g
     style="fill:#C2C200; fill-opacity:0.0;  stroke:#C2C200; stroke-width:78.7402; stroke-opacity:1;  stroke-linecap:round; stroke-linejoin:round;"
     id="g960">
    <path
       d="M65196 37184 L65196 42696 "
       id="path952" />
    <path
       d="M59684 37184 L65196 37184 "
       id="path954" />
    <path
       d="M59684 42696 L59684 37184 "
       id="path956" />
    <path
       d="M65196 42696 L59684 42696 "
       id="path958" />
  </g>
  <g
     style="fill:#C2C200; fill-opacity:1.0;  stroke:#C2C200; stroke-width:0; stroke-opacity:1;  stroke-linecap:round; stroke-linejoin:round;"
     id="g964">
    <circle
       cx="65196.9"
       cy="35215.9"
       r="39.3701"
       id="circle962" />
  </g>
  <g
     style="fill:#C2C200; fill-opacity:0.0;  stroke:#C2C200; stroke-width:78.7402; stroke-opacity:1;  stroke-linecap:round; stroke-linejoin:round;"
     id="g976">
    <path
       d="M65196 29704 L65196 35215 "
       id="path968" />
    <path
       d="M59685 29704 L65196 29704 "
       id="path970" />
    <path
       d="M59685 35215 L59685 29704 "
       id="path972" />
    <path
       d="M65196 35215 L59685 35215 "
       id="path974" />
  </g>
  <g
     style="fill:#C2C200; fill-opacity:1.0;  stroke:#C2C200; stroke-width:0; stroke-opacity:1;  stroke-linecap:round; stroke-linejoin:round;"
     id="g980">
    <circle
       cx="65196.9"
       cy="27696.9"
       r="39.3701"
       id="circle978" />
  </g>
  <g
     style="fill:#C2C200; fill-opacity:0.0;  stroke:#C2C200; stroke-width:78.7402; stroke-opacity:1;  stroke-linecap:round; stroke-linejoin:round;"
     id="g998">
    <path
       d="M65196 22185 L65196 27696 "
       id="path984" />
    <path
       d="M59685 22185 L65196 22185 "
       id="path986" />
    <path
       d="M59685 27696 L59685 22185 "
       id="path988" />
    <path
       d="M65196 27696 L59685 27696 "
       id="path990" />
    <path
       d="M65169 14669 L65169 20180 "
       id="path992" />
    <path
       d="M59657 14669 L65169 14669 "
       id="path994" />
    <path
       d="M59657 20180 L59657 14669 "
       id="path996" />
  </g>
  <g
     style="fill:#C2C200; fill-opacity:1.0;  stroke:#C2C200; stroke-width:0; stroke-opacity:1;  stroke-linecap:round; stroke-linejoin:round;"
     id="g1002">
    <circle
       cx="72678.8"
       cy="20727.9"
       r="39.3701"
       id="circle1000" />
  </g>
  <g
     style="fill:#C2C200; fill-opacity:0.0;  stroke:#C2C200; stroke-width:78.7402; stroke-opacity:1;  stroke-linecap:round; stroke-linejoin:round;"
     id="g1014">
    <path
       d="M72678 15216 L72678 20727 "
       id="path1006" />
    <path
       d="M67166 15216 L72678 15216 "
       id="path1008" />
    <path
       d="M67166 20727 L67166 15216 "
       id="path1010" />
    <path
       d="M72678 20727 L67166 20727 "
       id="path1012" />
  </g>
  <g
     style="fill:#C2C200; fill-opacity:1.0;  stroke:#C2C200; stroke-width:0; stroke-opacity:1;  stroke-linecap:round; stroke-linejoin:round;"
     id="g1018">
    <circle
       cx="72676.4"
       cy="28208.3"
       r="39.3701"
       id="circle1016" />
  </g>
  <g
     style="fill:#C2C200; fill-opacity:0.0;  stroke:#C2C200; stroke-width:78.7402; stroke-opacity:1;  stroke-linecap:round; stroke-linejoin:round;"
     id="g1030">
    <path
       d="M72676 22696 L72676 28208 "
       id="path1022" />
    <path
       d="M67164 22696 L72676 22696 "
       id="path1024" />
    <path
       d="M67164 28208 L67164 22696 "
       id="path1026" />
    <path
       d="M72676 28208 L67164 28208 "
       id="path1028" />
  </g>
  <g
     style="fill:#C2C200; fill-opacity:1.0;  stroke:#C2C200; stroke-width:0; stroke-opacity:1;  stroke-linecap:round; stroke-linejoin:round;"
     id="g1034">
    <circle
       cx="72677.2"
       cy="35727.7"
       r="39.3701"
       id="circle1032" />
  </g>
  <g
     style="fill:#C2C200; fill-opacity:0.0;  stroke:#C2C200; stroke-width:78.7402; stroke-opacity:1;  stroke-linecap:round; stroke-linejoin:round;"
     id="g1046">
    <path
       d="M72677 30215 L72677 35727 "
       id="path1038" />
    <path
       d="M67165 30215 L72677 30215 "
       id="path1040" />
    <path
       d="M67165 35727 L67165 30215 "
       id="path1042" />
    <path
       d="M72677 35727 L67165 35727 "
       id="path1044" />
  </g>
  <g
     style="fill:#C2C200; fill-opacity:1.0;  stroke:#C2C200; stroke-width:0; stroke-opacity:1;  stroke-linecap:round; stroke-linejoin:round;"
     id="g1050">
    <circle
       cx="72676.9"
       cy="43247.8"
       r="39.3701"
       id="circle1048" />
  </g>
  <g
     style="fill:#C2C200; fill-opacity:0.0;  stroke:#C2C200; stroke-width:78.7402; stroke-opacity:1;  stroke-linecap:round; stroke-linejoin:round;"
     id="g1062">
    <path
       d="M72676 37735 L72676 43247 "
       id="path1054" />
    <path
       d="M67165 37735 L72676 37735 "
       id="path1056" />
    <path
       d="M67165 43247 L67165 37735 "
       id="path1058" />
    <path
       d="M72676 43247 L67165 43247 "
       id="path1060" />
  </g>
  <g
     style="fill:#C2C200; fill-opacity:1.0;  stroke:#C2C200; stroke-width:0; stroke-opacity:1;  stroke-linecap:round; stroke-linejoin:round;"
     id="g1066">
    <circle
       cx="80196.4"
       cy="30058.9"
       r="39.3701"
       id="circle1064" />
  </g>
  <g
     style="fill:#C2C200; fill-opacity:0.0;  stroke:#C2C200; stroke-width:78.7402; stroke-opacity:1;  stroke-linecap:round; stroke-linejoin:round;"
     id="g1078">
    <path
       d="M80196 24547 L80196 30058 "
       id="path1070" />
    <path
       d="M74684 24547 L80196 24547 "
       id="path1072" />
    <path
       d="M74684 30058 L74684 24547 "
       id="path1074" />
    <path
       d="M80196 30058 L74684 30058 "
       id="path1076" />
  </g>
  <g
     style="fill:#C2C200; fill-opacity:1.0;  stroke:#C2C200; stroke-width:0; stroke-opacity:1;  stroke-linecap:round; stroke-linejoin:round;"
     id="g1082">
    <circle
       cx="80191"
       cy="37617.9"
       r="39.3701"
       id="circle1080" />
  </g>
  <g
     style="fill:#C2C200; fill-opacity:0.0;  stroke:#C2C200; stroke-width:78.7402; stroke-opacity:1;  stroke-linecap:round; stroke-linejoin:round;"
     id="g1094">
    <path
       d="M80190 32106 L80190 37617 "
       id="path1086" />
    <path
       d="M74679 32106 L80190 32106 "
       id="path1088" />
    <path
       d="M74679 37617 L74679 32106 "
       id="path1090" />
    <path
       d="M80190 37617 L74679 37617 "
       id="path1092" />
  </g>
  <g
     style="fill:#C2C200; fill-opacity:1.0;  stroke:#C2C200; stroke-width:0; stroke-opacity:1;  stroke-linecap:round; stroke-linejoin:round;"
     id="g1098">
    <circle
       cx="80196.8"
       cy="45097.8"
       r="39.3701"
       id="circle1096" />
  </g>
  <g
     style="fill:#C2C200; fill-opacity:0.0;  stroke:#C2C200; stroke-width:78.7402; stroke-opacity:1;  stroke-linecap:round; stroke-linejoin:round;"
     id="g1110">
    <path
       d="M80196 39585 L80196 45097 "
       id="path1102" />
    <path
       d="M74684 39585 L80196 39585 "
       id="path1104" />
    <path
       d="M74684 45097 L74684 39585 "
       id="path1106" />
    <path
       d="M80196 45097 L74684 45097 "
       id="path1108" />
  </g>
  <g
     style="fill:#C2C200; fill-opacity:1.0;  stroke:#C2C200; stroke-width:0; stroke-opacity:1;  stroke-linecap:round; stroke-linejoin:round;"
     id="g1114">
    <circle
       cx="80196.9"
       cy="22617.9"
       r="39.3701"
       id="circle1112" />
  </g>
  <g
     style="fill:#C2C200; fill-opacity:0.0;  stroke:#C2C200; stroke-width:78.7402; stroke-opacity:1;  stroke-linecap:round; stroke-linejoin:round;"
     id="g1230">
    <path
       d="M80196 17106 L80196 22617 "
       id="path1118" />
    <path
       d="M74684 17106 L80196 17106 "
       id="path1120" />
    <path
       d="M74684 22617 L74684 17106 "
       id="path1122" />
    <path
       d="M80196 22617 L74684 22617 "
       id="path1124" />
    <path
       d="M65845 13832 L44440 13832 "
       id="path1126" />
    <path
       d="M35370 46456 L35429 46567 "
       id="path1128" />
    <path
       d="M35312 46345 L35370 46456 "
       id="path1130" />
    <path
       d="M35253 46234 L35312 46345 "
       id="path1132" />
    <path
       d="M35194 46124 L35253 46234 "
       id="path1134" />
    <path
       d="M35104 45925 L35194 46124 "
       id="path1136" />
    <path
       d="M35014 45727 L35104 45925 "
       id="path1138" />
    <path
       d="M34924 45528 L35014 45727 "
       id="path1140" />
    <path
       d="M34834 45329 L34924 45528 "
       id="path1142" />
    <path
       d="M34725 45047 L34834 45329 "
       id="path1144" />
    <path
       d="M34615 44765 L34725 45047 "
       id="path1146" />
    <path
       d="M34506 44483 L34615 44765 "
       id="path1148" />
    <path
       d="M34396 44201 L34506 44483 "
       id="path1150" />
    <path
       d="M34278 43839 L34396 44201 "
       id="path1152" />
    <path
       d="M34161 43477 L34278 43839 "
       id="path1154" />
    <path
       d="M34043 43116 L34161 43477 "
       id="path1156" />
    <path
       d="M33925 42754 L34043 43116 "
       id="path1158" />
    <path
       d="M33810 42317 L33925 42754 "
       id="path1160" />
    <path
       d="M33696 41880 L33810 42317 "
       id="path1162" />
    <path
       d="M33581 41443 L33696 41880 "
       id="path1164" />
    <path
       d="M33467 41006 L33581 41443 "
       id="path1166" />
    <path
       d="M33367 40497 L33467 41006 "
       id="path1168" />
    <path
       d="M33267 39989 L33367 40497 "
       id="path1170" />
    <path
       d="M33168 39480 L33267 39989 "
       id="path1172" />
    <path
       d="M33068 38972 L33168 39480 "
       id="path1174" />
    <path
       d="M32994 38396 L33068 38972 "
       id="path1176" />
    <path
       d="M32921 37821 L32994 38396 "
       id="path1178" />
    <path
       d="M32847 37245 L32921 37821 "
       id="path1180" />
    <path
       d="M32774 36669 L32847 37245 "
       id="path1182" />
    <path
       d="M32743 36123 L32774 36669 "
       id="path1184" />
    <path
       d="M32713 35578 L32743 36123 "
       id="path1186" />
    <path
       d="M32682 35032 L32713 35578 "
       id="path1188" />
    <path
       d="M32652 34486 L32682 35032 "
       id="path1190" />
    <path
       d="M41052 55677 L41123 55638 "
       id="path1192" />
    <path
       d="M41002 55693 L41052 55677 "
       id="path1194" />
    <path
       d="M40953 55697 L41002 55693 "
       id="path1196" />
    <path
       d="M40909 55697 L40953 55697 "
       id="path1198" />
    <path
       d="M40866 55684 L40909 55697 "
       id="path1200" />
    <path
       d="M40822 55663 L40866 55684 "
       id="path1202" />
    <path
       d="M40763 55626 L40822 55663 "
       id="path1204" />
    <path
       d="M40726 55580 L40763 55626 "
       id="path1206" />
    <path
       d="M45741 52964 L46401 52582 "
       id="path1208" />
    <path
       d="M45082 53346 L45741 52964 "
       id="path1210" />
    <path
       d="M44422 53728 L45082 53346 "
       id="path1212" />
    <path
       d="M43762 54110 L44422 53728 "
       id="path1214" />
    <path
       d="M43103 54492 L43762 54110 "
       id="path1216" />
    <path
       d="M42443 54874 L43103 54492 "
       id="path1218" />
    <path
       d="M41783 55256 L42443 54874 "
       id="path1220" />
    <path
       d="M41123 55638 L41783 55256 "
       id="path1222" />
    <path
       d="M52165 22736 L57676 22736 "
       id="path1224" />
    <path
       d="M52165 28247 L52165 22736 "
       id="path1226" />
    <path
       d="M57676 28247 L52165 28247 "
       id="path1228" />
  </g>
  <g
     style="fill:#C2C200; fill-opacity:1.0;  stroke:#C2C200; stroke-width:0; stroke-opacity:1;  stroke-linecap:round; stroke-linejoin:round;"
     id="g1234">
    <circle
       cx="57677.3"
       cy="35728.6"
       r="39.3701"
       id="circle1232" />
  </g>
  <g
     style="fill:#C2C200; fill-opacity:0.0;  stroke:#C2C200; stroke-width:78.7402; stroke-opacity:1;  stroke-linecap:round; stroke-linejoin:round;"
     id="g1240">
    <path
       d="M57677 30216 L57677 35728 "
       id="path1238" />
  </g>
  <g
     style="fill:#C2C200; fill-opacity:1.0;  stroke:#C2C200; stroke-width:0; stroke-opacity:1;  stroke-linecap:round; stroke-linejoin:round;"
     id="g1244">
    <circle
       cx="57676.9"
       cy="28247.9"
       r="39.3701"
       id="circle1242" />
  </g>
  <g
     style="fill:#C2C200; fill-opacity:0.0;  stroke:#C2C200; stroke-width:78.7402; stroke-opacity:1;  stroke-linecap:round; stroke-linejoin:round;"
     id="g1250">
    <path
       d="M57676 22736 L57676 28247 "
       id="path1248" />
  </g>
  <g
     style="fill:#C2C200; fill-opacity:1.0;  stroke:#C2C200; stroke-width:0; stroke-opacity:1;  stroke-linecap:round; stroke-linejoin:round;"
     id="g1254">
    <circle
       cx="50196.5"
       cy="21672.9"
       r="39.3701"
       id="circle1252" />
  </g>
  <g
     style="fill:#C2C200; fill-opacity:0.0;  stroke:#C2C200; stroke-width:78.7402; stroke-opacity:1;  stroke-linecap:round; stroke-linejoin:round;"
     id="g1268">
    <path
       d="M44684 21672 L44684 16161 "
       id="path1258" />
    <path
       d="M50196 21672 L44684 21672 "
       id="path1260" />
    <path
       d="M57676 15216 L57676 20727 "
       id="path1262" />
    <path
       d="M52165 15216 L57676 15216 "
       id="path1264" />
    <path
       d="M52165 20727 L52165 15216 "
       id="path1266" />
  </g>
  <g
     style="fill:#C2C200; fill-opacity:1.0;  stroke:#C2C200; stroke-width:0; stroke-opacity:1;  stroke-linecap:round; stroke-linejoin:round;"
     id="g1272">
    <circle
       cx="50196.9"
       cy="29193.1"
       r="39.3701"
       id="circle1270" />
  </g>
  <g
     style="fill:#C2C200; fill-opacity:0.0;  stroke:#C2C200; stroke-width:78.7402; stroke-opacity:1;  stroke-linecap:round; stroke-linejoin:round;"
     id="g1286">
    <path
       d="M50196 23681 L50196 29193 "
       id="path1276" />
    <path
       d="M44685 23681 L50196 23681 "
       id="path1278" />
    <path
       d="M44685 29193 L44685 23681 "
       id="path1280" />
    <path
       d="M50196 29193 L44685 29193 "
       id="path1282" />
    <path
       d="M33517 33619 L42708 33619 "
       id="path1284" />
  </g>
  <g
     style="fill:#C2C200; fill-opacity:1.0;  stroke:#C2C200; stroke-width:0; stroke-opacity:1;  stroke-linecap:round; stroke-linejoin:round;"
     id="g1290">
    <circle
       cx="42658.1"
       cy="40373.8"
       r="39.3701"
       id="circle1288" />
  </g>
  <g
     style="fill:#C2C200; fill-opacity:0.0;  stroke:#C2C200; stroke-width:78.7402; stroke-opacity:1;  stroke-linecap:round; stroke-linejoin:round;"
     id="g1302">
    <path
       d="M42658 34861 L42658 40373 "
       id="path1294" />
    <path
       d="M37165 34861 L42658 34861 "
       id="path1296" />
    <path
       d="M37165 40373 L37165 34861 "
       id="path1298" />
    <path
       d="M42658 40373 L37165 40373 "
       id="path1300" />
  </g>
  <g
     style="fill:#C2C200; fill-opacity:1.0;  stroke:#C2C200; stroke-width:0; stroke-opacity:1;  stroke-linecap:round; stroke-linejoin:round;"
     id="g1306">
    <circle
       cx="45103.1"
       cy="50240.6"
       r="39.3701"
       id="circle1304" />
  </g>
  <g
     style="fill:#C2C200; fill-opacity:0.0;  stroke:#C2C200; stroke-width:78.7402; stroke-opacity:1;  stroke-linecap:round; stroke-linejoin:round;"
     id="g1318">
    <path
       d="M42347 45467 L45103 50240 "
       id="path1310" />
    <path
       d="M37573 48223 L42347 45467 "
       id="path1312" />
    <path
       d="M40329 52996 L37573 48223 "
       id="path1314" />
    <path
       d="M45103 50240 L40329 52996 "
       id="path1316" />
  </g>
  <g
     style="fill:#C2C200; fill-opacity:1.0;  stroke:#C2C200; stroke-width:0; stroke-opacity:1;  stroke-linecap:round; stroke-linejoin:round;"
     id="g1322">
    <circle
       cx="50196.5"
       cy="44153.8"
       r="39.3701"
       id="circle1320" />
  </g>
  <g
     style="fill:#C2C200; fill-opacity:0.0;  stroke:#C2C200; stroke-width:78.7402; stroke-opacity:1;  stroke-linecap:round; stroke-linejoin:round;"
     id="g1334">
    <path
       d="M50196 38641 L50196 44153 "
       id="path1326" />
    <path
       d="M44684 38641 L50196 38641 "
       id="path1328" />
    <path
       d="M44684 44153 L44684 38641 "
       id="path1330" />
    <path
       d="M50196 44153 L44684 44153 "
       id="path1332" />
  </g>
  <g
     style="fill:#C2C200; fill-opacity:1.0;  stroke:#C2C200; stroke-width:0; stroke-opacity:1;  stroke-linecap:round; stroke-linejoin:round;"
     id="g1338">
    <circle
       cx="50196.5"
       cy="36672.3"
       r="39.3701"
       id="circle1336" />
  </g>
  <g
     style="fill:#C2C200; fill-opacity:0.0;  stroke:#C2C200; stroke-width:78.7402; stroke-opacity:1;  stroke-linecap:round; stroke-linejoin:round;"
     id="g1400">
    <path
       d="M50196 31160 L50196 36672 "
       id="path1342" />
    <path
       d="M44684 31160 L50196 31160 "
       id="path1344" />
    <path
       d="M44684 36672 L44684 31160 "
       id="path1346" />
    <path
       d="M50196 36672 L44684 36672 "
       id="path1348" />
    <path
       d="M43506 33090 L43557 32928 "
       id="path1350" />
    <path
       d="M43427 33237 L43506 33090 "
       id="path1352" />
    <path
       d="M43321 33365 L43427 33237 "
       id="path1354" />
    <path
       d="M43193 33471 L43321 33365 "
       id="path1356" />
    <path
       d="M43046 33551 L43193 33471 "
       id="path1358" />
    <path
       d="M42883 33601 L43046 33551 "
       id="path1360" />
    <path
       d="M42708 33619 L42883 33601 "
       id="path1362" />
    <path
       d="M43557 32928 L43574 32753 "
       id="path1364" />
    <path
       d="M33517 33619 L33341 33636 "
       id="path1366" />
    <path
       d="M32798 33998 L32719 34146 "
       id="path1368" />
    <path
       d="M32903 33871 L32798 33998 "
       id="path1370" />
    <path
       d="M33031 33765 L32903 33871 "
       id="path1372" />
    <path
       d="M33178 33686 L33031 33765 "
       id="path1374" />
    <path
       d="M33341 33636 L33178 33686 "
       id="path1376" />
    <path
       d="M32669 34309 L32652 34486 "
       id="path1378" />
    <path
       d="M32719 34146 L32669 34309 "
       id="path1380" />
    <path
       d="M44266 13850 L44103 13900 "
       id="path1382" />
    <path
       d="M44440 13832 L44266 13850 "
       id="path1384" />
    <path
       d="M43592 14524 L43574 14699 "
       id="path1386" />
    <path
       d="M43642 14361 L43592 14524 "
       id="path1388" />
    <path
       d="M43722 14214 L43642 14361 "
       id="path1390" />
    <path
       d="M43828 14086 L43722 14214 "
       id="path1392" />
    <path
       d="M43956 13980 L43828 14086 "
       id="path1394" />
    <path
       d="M44103 13900 L43956 13980 "
       id="path1396" />
    <path
       d="M87696 45688 L82184 45688 "
       id="path1398" />
  </g>
  <g
     style="fill:#C2C200; fill-opacity:1.0;  stroke:#C2C200; stroke-width:0; stroke-opacity:1;  stroke-linecap:round; stroke-linejoin:round;"
     id="g1404">
    <circle
       cx="87696.4"
       cy="45688.7"
       r="39.3701"
       id="circle1402" />
  </g>
  <g
     style="fill:#C2C200; fill-opacity:0.0;  stroke:#C2C200; stroke-width:78.7402; stroke-opacity:1;  stroke-linecap:round; stroke-linejoin:round;"
     id="g1420">
    <path
       d="M87696 40176 L87696 45688 "
       id="path1408" />
    <path
       d="M82184 40176 L87696 40176 "
       id="path1410" />
    <path
       d="M82184 45688 L82184 40176 "
       id="path1412" />
    <path
       d="M82165 38208 L82165 32697 "
       id="path1414" />
    <path
       d="M87677 38208 L82165 38208 "
       id="path1416" />
    <path
       d="M43574 32753 L43574 14704 "
       id="path1418" />
  </g>
  <g
     style="fill:#C2C200; fill-opacity:1.0;  stroke:#C2C200; stroke-width:0; stroke-opacity:1;  stroke-linecap:round; stroke-linejoin:round;"
     id="g1424">
    <circle
       cx="87677.2"
       cy="38208.9"
       r="39.3701"
       id="circle1422" />
  </g>
  <g
     style="fill:#C2C200; fill-opacity:0.0;  stroke:#C2C200; stroke-width:78.7402; stroke-opacity:1;  stroke-linecap:round; stroke-linejoin:round;"
     id="g1500">
    <path
       d="M87677 32697 L87677 38208 "
       id="path1428" />
    <path
       d="M82165 32697 L87677 32697 "
       id="path1430" />
    <path
       d="M70030 52410 L69943 52482 "
       id="path1432" />
    <path
       d="M70102 52322 L70030 52410 "
       id="path1434" />
    <path
       d="M70157 52222 L70102 52322 "
       id="path1436" />
    <path
       d="M70191 52111 L70157 52222 "
       id="path1438" />
    <path
       d="M70203 51992 L70191 52111 "
       id="path1440" />
    <path
       d="M71581 46786 L88172 46786 "
       id="path1442" />
    <path
       d="M71303 46814 L71581 46786 "
       id="path1444" />
    <path
       d="M71044 46895 L71303 46814 "
       id="path1446" />
    <path
       d="M70810 47022 L71044 46895 "
       id="path1448" />
    <path
       d="M70607 47190 L70810 47022 "
       id="path1450" />
    <path
       d="M70438 47394 L70607 47190 "
       id="path1452" />
    <path
       d="M70311 47628 L70438 47394 "
       id="path1454" />
    <path
       d="M70231 47886 L70311 47628 "
       id="path1456" />
    <path
       d="M70203 48164 L70231 47886 "
       id="path1458" />
    <path
       d="M74770 14029 L73729 13984 "
       id="path1460" />
    <path
       d="M75785 14079 L74770 14029 "
       id="path1462" />
    <path
       d="M76774 14134 L75785 14079 "
       id="path1464" />
    <path
       d="M87676 25137 L87676 30648 "
       id="path1466" />
    <path
       d="M88502 46686 L88402 46740 "
       id="path1468" />
    <path
       d="M88590 46613 L88502 46686 "
       id="path1470" />
    <path
       d="M88662 46526 L88590 46613 "
       id="path1472" />
    <path
       d="M88716 46426 L88662 46526 "
       id="path1474" />
    <path
       d="M88750 46315 L88716 46426 "
       id="path1476" />
    <path
       d="M88762 46196 L88750 46315 "
       id="path1478" />
    <path
       d="M63425 45196 L68937 45196 "
       id="path1480" />
    <path
       d="M63425 50708 L63425 48965 "
       id="path1482" />
    <path
       d="M82164 25137 L87676 25137 "
       id="path1484" />
    <path
       d="M68937 45196 L68937 50708 "
       id="path1486" />
    <g
       id="g1488" />
    <g
       id="g1490" />
    <g
       id="g1492" />
    <g
       id="g1494" />
    <g
       id="g1496" />
    <g
       id="g1498" />
  </g>
  <metadata
     id="metadata2323">
    <rdf:RDF>
      <cc:Work
         rdf:about="">
        <dc:title>SVG Picture created as Lily58_Pro_TOP-B_Cu.svg date 2021/12/30 15:27:34 </dc:title>
      </cc:Work>
    </rdf:RDF>
  </metadata>
</svg>
